<svg xmlns="http://www.w3.org/2000/svg" width="300" height="308" viewBox="0 0 300 308">
<defs>
  <radialGradient id="sph" cx="36%" cy="30%" r="68%">
    <stop offset="0%"   stop-color="#1e3a6e"/>
    <stop offset="45%"  stop-color="#0d1f40"/>
    <stop offset="100%" stop-color="#040810"/>
  </radialGradient>
  <radialGradient id="shn" cx="33%" cy="26%" r="42%">
    <stop offset="0%"   stop-color="#ffffff" stop-opacity="0.14"/>
    <stop offset="100%" stop-color="transparent"/>
  </radialGradient>
  <clipPath id="gc"><circle cx="150" cy="146" r="122"/></clipPath>
  <filter id="hg" x="-200%" y="-200%" width="500%" height="500%">
    <feGaussianBlur in="SourceGraphic" stdDeviation="3.5" result="b"/>
    <feMerge><feMergeNode in="b"/><feMergeNode in="SourceGraphic"/></feMerge>
  </filter>
</defs>
<circle cx="150" cy="146" r="122" fill="url(#sph)"/>
<g clip-path="url(#gc)">
<g transform="translate(-25.20,24.00)"><animateTransform attributeName="transform" type="translate" from="-25.20,24.00" to="-269.20,24.00" dur="22s" repeatCount="indefinite" calcMode="linear"/>
<line x1="0.0" y1="230.4" x2="244.0" y2="230.4" stroke="#1f6feb" stroke-width="0.4" stroke-opacity="0.28"/>
<line x1="0.0" y1="210.1" x2="244.0" y2="210.1" stroke="#1f6feb" stroke-width="0.4" stroke-opacity="0.28"/>
<line x1="0.0" y1="189.8" x2="244.0" y2="189.8" stroke="#1f6feb" stroke-width="0.4" stroke-opacity="0.28"/>
<line x1="0.0" y1="169.4" x2="244.0" y2="169.4" stroke="#1f6feb" stroke-width="0.4" stroke-opacity="0.28"/>
<line x1="0.0" y1="149.1" x2="244.0" y2="149.1" stroke="#1f6feb" stroke-width="0.4" stroke-opacity="0.28"/>
<line x1="0.0" y1="128.8" x2="244.0" y2="128.8" stroke="#1f6feb" stroke-width="0.4" stroke-opacity="0.28"/>
<line x1="0.0" y1="108.4" x2="244.0" y2="108.4" stroke="#1f6feb" stroke-width="0.4" stroke-opacity="0.28"/>
<line x1="0.0" y1="88.1" x2="244.0" y2="88.1" stroke="#1f6feb" stroke-width="0.4" stroke-opacity="0.28"/>
<line x1="0.0" y1="67.8" x2="244.0" y2="67.8" stroke="#1f6feb" stroke-width="0.4" stroke-opacity="0.28"/>
<line x1="0.0" y1="47.4" x2="244.0" y2="47.4" stroke="#1f6feb" stroke-width="0.4" stroke-opacity="0.28"/>
<line x1="0.0" y1="27.1" x2="244.0" y2="27.1" stroke="#1f6feb" stroke-width="0.4" stroke-opacity="0.28"/>
<line x1="0.0" y1="6.8" x2="244.0" y2="6.8" stroke="#1f6feb" stroke-width="0.4" stroke-opacity="0.28"/>
<line x1="0.0" y1="0" x2="0.0" y2="244.0" stroke="#1f6feb" stroke-width="0.4" stroke-opacity="0.28"/>
<line x1="10.2" y1="0" x2="10.2" y2="244.0" stroke="#1f6feb" stroke-width="0.4" stroke-opacity="0.28"/>
<line x1="20.3" y1="0" x2="20.3" y2="244.0" stroke="#1f6feb" stroke-width="0.4" stroke-opacity="0.28"/>
<line x1="30.5" y1="0" x2="30.5" y2="244.0" stroke="#1f6feb" stroke-width="0.4" stroke-opacity="0.28"/>
<line x1="40.7" y1="0" x2="40.7" y2="244.0" stroke="#1f6feb" stroke-width="0.4" stroke-opacity="0.28"/>
<line x1="50.8" y1="0" x2="50.8" y2="244.0" stroke="#1f6feb" stroke-width="0.4" stroke-opacity="0.28"/>
<line x1="61.0" y1="0" x2="61.0" y2="244.0" stroke="#1f6feb" stroke-width="0.4" stroke-opacity="0.28"/>
<line x1="71.2" y1="0" x2="71.2" y2="244.0" stroke="#1f6feb" stroke-width="0.4" stroke-opacity="0.28"/>
<line x1="81.3" y1="0" x2="81.3" y2="244.0" stroke="#1f6feb" stroke-width="0.4" stroke-opacity="0.28"/>
<line x1="91.5" y1="0" x2="91.5" y2="244.0" stroke="#1f6feb" stroke-width="0.4" stroke-opacity="0.28"/>
<line x1="101.7" y1="0" x2="101.7" y2="244.0" stroke="#1f6feb" stroke-width="0.4" stroke-opacity="0.28"/>
<line x1="111.8" y1="0" x2="111.8" y2="244.0" stroke="#1f6feb" stroke-width="0.4" stroke-opacity="0.28"/>
<line x1="122.0" y1="0" x2="122.0" y2="244.0" stroke="#58a6ff" stroke-width="1" stroke-opacity="0.65"/>
<line x1="132.2" y1="0" x2="132.2" y2="244.0" stroke="#1f6feb" stroke-width="0.4" stroke-opacity="0.28"/>
<line x1="142.3" y1="0" x2="142.3" y2="244.0" stroke="#1f6feb" stroke-width="0.4" stroke-opacity="0.28"/>
<line x1="152.5" y1="0" x2="152.5" y2="244.0" stroke="#1f6feb" stroke-width="0.4" stroke-opacity="0.28"/>
<line x1="162.7" y1="0" x2="162.7" y2="244.0" stroke="#1f6feb" stroke-width="0.4" stroke-opacity="0.28"/>
<line x1="172.8" y1="0" x2="172.8" y2="244.0" stroke="#1f6feb" stroke-width="0.4" stroke-opacity="0.28"/>
<line x1="183.0" y1="0" x2="183.0" y2="244.0" stroke="#1f6feb" stroke-width="0.4" stroke-opacity="0.28"/>
<line x1="193.2" y1="0" x2="193.2" y2="244.0" stroke="#1f6feb" stroke-width="0.4" stroke-opacity="0.28"/>
<line x1="203.3" y1="0" x2="203.3" y2="244.0" stroke="#1f6feb" stroke-width="0.4" stroke-opacity="0.28"/>
<line x1="213.5" y1="0" x2="213.5" y2="244.0" stroke="#1f6feb" stroke-width="0.4" stroke-opacity="0.28"/>
<line x1="223.7" y1="0" x2="223.7" y2="244.0" stroke="#1f6feb" stroke-width="0.4" stroke-opacity="0.28"/>
<line x1="233.8" y1="0" x2="233.8" y2="244.0" stroke="#1f6feb" stroke-width="0.4" stroke-opacity="0.28"/>
<line x1="244.0" y1="0" x2="244.0" y2="244.0" stroke="#1f6feb" stroke-width="0.4" stroke-opacity="0.28"/>
<circle cx="118.6" cy="71.8" r="1.6" fill="#2d7ec4" fill-opacity="0.72"/>
<circle cx="128.1" cy="75.9" r="1.6" fill="#2d7ec4" fill-opacity="0.72"/>
<circle cx="143.7" cy="81.3" r="1.6" fill="#2d7ec4" fill-opacity="0.72"/>
<circle cx="147.1" cy="92.2" r="1.6" fill="#2d7ec4" fill-opacity="0.72"/>
<circle cx="150.5" cy="101.7" r="1.6" fill="#2d7ec4" fill-opacity="0.72"/>
<circle cx="149.8" cy="115.2" r="1.6" fill="#2d7ec4" fill-opacity="0.72"/>
<circle cx="149.1" cy="128.8" r="1.6" fill="#2d7ec4" fill-opacity="0.72"/>
<circle cx="147.8" cy="141.0" r="1.6" fill="#2d7ec4" fill-opacity="0.72"/>
<circle cx="145.7" cy="149.1" r="1.6" fill="#2d7ec4" fill-opacity="0.72"/>
<circle cx="142.3" cy="162.7" r="1.6" fill="#2d7ec4" fill-opacity="0.72"/>
<circle cx="135.6" cy="169.4" r="1.6" fill="#2d7ec4" fill-opacity="0.72"/>
<circle cx="133.5" cy="166.7" r="1.6" fill="#2d7ec4" fill-opacity="0.72"/>
<circle cx="132.2" cy="155.9" r="1.6" fill="#2d7ec4" fill-opacity="0.72"/>
<circle cx="130.1" cy="146.4" r="1.6" fill="#2d7ec4" fill-opacity="0.72"/>
<circle cx="128.8" cy="128.8" r="1.6" fill="#2d7ec4" fill-opacity="0.72"/>
<circle cx="124.0" cy="115.2" r="1.6" fill="#2d7ec4" fill-opacity="0.72"/>
<circle cx="111.8" cy="105.7" r="1.6" fill="#2d7ec4" fill-opacity="0.72"/>
<circle cx="111.2" cy="97.6" r="1.6" fill="#2d7ec4" fill-opacity="0.72"/>
<circle cx="111.8" cy="88.1" r="1.6" fill="#2d7ec4" fill-opacity="0.72"/>
<circle cx="115.2" cy="78.6" r="1.6" fill="#2d7ec4" fill-opacity="0.72"/>
<circle cx="118.6" cy="74.6" r="1.6" fill="#2d7ec4" fill-opacity="0.72"/>
<circle cx="146.4" cy="71.8" r="1.6" fill="#2d7ec4" fill-opacity="0.72"/>
<circle cx="140.3" cy="67.8" r="1.6" fill="#2d7ec4" fill-opacity="0.72"/>
<circle cx="155.9" cy="89.5" r="1.6" fill="#2d7ec4" fill-opacity="0.72"/>
<circle cx="162.7" cy="92.2" r="1.6" fill="#2d7ec4" fill-opacity="0.72"/>
<circle cx="160.6" cy="90.8" r="1.6" fill="#2d7ec4" fill-opacity="0.72"/>
<circle cx="151.1" cy="105.7" r="1.6" fill="#2d7ec4" fill-opacity="0.72"/>
<circle cx="155.9" cy="103.0" r="1.6" fill="#2d7ec4" fill-opacity="0.72"/>
<circle cx="162.0" cy="92.2" r="1.6" fill="#2d7ec4" fill-opacity="0.72"/>
<circle cx="167.4" cy="89.5" r="1.6" fill="#2d7ec4" fill-opacity="0.72"/>
<circle cx="168.1" cy="88.1" r="1.6" fill="#2d7ec4" fill-opacity="0.72"/>
<circle cx="169.4" cy="92.2" r="1.6" fill="#2d7ec4" fill-opacity="0.72"/>
<circle cx="171.5" cy="94.9" r="1.6" fill="#2d7ec4" fill-opacity="0.72"/>
<circle cx="171.5" cy="101.7" r="1.6" fill="#2d7ec4" fill-opacity="0.72"/>
<circle cx="174.2" cy="111.2" r="1.6" fill="#2d7ec4" fill-opacity="0.72"/>
<circle cx="176.2" cy="111.2" r="1.6" fill="#2d7ec4" fill-opacity="0.72"/>
<circle cx="176.2" cy="105.7" r="1.6" fill="#2d7ec4" fill-opacity="0.72"/>
<circle cx="181.0" cy="94.9" r="1.6" fill="#2d7ec4" fill-opacity="0.72"/>
<circle cx="183.0" cy="90.8" r="1.6" fill="#2d7ec4" fill-opacity="0.72"/>
<circle cx="184.4" cy="92.2" r="1.6" fill="#2d7ec4" fill-opacity="0.72"/>
<circle cx="185.0" cy="94.9" r="1.6" fill="#2d7ec4" fill-opacity="0.72"/>
<circle cx="171.5" cy="84.0" r="1.6" fill="#2d7ec4" fill-opacity="0.72"/>
<circle cx="176.2" cy="86.8" r="1.6" fill="#2d7ec4" fill-opacity="0.72"/>
<circle cx="180.3" cy="89.5" r="1.6" fill="#2d7ec4" fill-opacity="0.72"/>
<circle cx="181.6" cy="92.2" r="1.6" fill="#2d7ec4" fill-opacity="0.72"/>
<circle cx="182.3" cy="89.5" r="1.6" fill="#2d7ec4" fill-opacity="0.72"/>
<circle cx="189.8" cy="115.2" r="1.6" fill="#2d7ec4" fill-opacity="0.72"/>
<circle cx="189.1" cy="108.4" r="1.6" fill="#2d7ec4" fill-opacity="0.72"/>
<circle cx="191.1" cy="100.3" r="1.6" fill="#2d7ec4" fill-opacity="0.72"/>
<circle cx="193.8" cy="94.9" r="1.6" fill="#2d7ec4" fill-opacity="0.72"/>
<circle cx="199.3" cy="92.2" r="1.6" fill="#2d7ec4" fill-opacity="0.72"/>
<circle cx="203.3" cy="88.1" r="1.6" fill="#2d7ec4" fill-opacity="0.72"/>
<circle cx="204.7" cy="81.3" r="1.6" fill="#2d7ec4" fill-opacity="0.72"/>
<circle cx="210.1" cy="74.6" r="1.6" fill="#2d7ec4" fill-opacity="0.72"/>
<circle cx="206.0" cy="67.8" r="1.6" fill="#2d7ec4" fill-opacity="0.72"/>
<circle cx="210.1" cy="65.1" r="1.6" fill="#2d7ec4" fill-opacity="0.72"/>
<circle cx="216.9" cy="56.9" r="1.6" fill="#2d7ec4" fill-opacity="0.72"/>
<circle cx="216.9" cy="47.4" r="1.6" fill="#2d7ec4" fill-opacity="0.72"/>
<circle cx="223.7" cy="40.7" r="1.6" fill="#2d7ec4" fill-opacity="0.72"/>
<circle cx="232.5" cy="40.7" r="1.6" fill="#2d7ec4" fill-opacity="0.72"/>
<circle cx="244.0" cy="33.9" r="1.6" fill="#2d7ec4" fill-opacity="0.72"/>
<circle cx="242.6" cy="27.1" r="1.6" fill="#2d7ec4" fill-opacity="0.72"/>
<circle cx="220.3" cy="24.4" r="1.6" fill="#2d7ec4" fill-opacity="0.72"/>
<circle cx="203.3" cy="23.0" r="1.6" fill="#2d7ec4" fill-opacity="0.72"/>
<circle cx="186.4" cy="20.3" r="1.6" fill="#2d7ec4" fill-opacity="0.72"/>
<circle cx="172.8" cy="17.6" r="1.6" fill="#2d7ec4" fill-opacity="0.72"/>
<circle cx="159.3" cy="23.0" r="1.6" fill="#2d7ec4" fill-opacity="0.72"/>
<circle cx="142.3" cy="33.9" r="1.6" fill="#2d7ec4" fill-opacity="0.72"/>
<circle cx="159.3" cy="27.1" r="1.6" fill="#2d7ec4" fill-opacity="0.72"/>
<circle cx="172.8" cy="27.1" r="1.6" fill="#2d7ec4" fill-opacity="0.72"/>
<circle cx="186.4" cy="27.1" r="1.6" fill="#2d7ec4" fill-opacity="0.72"/>
<circle cx="199.9" cy="27.1" r="1.6" fill="#2d7ec4" fill-opacity="0.72"/>
<circle cx="216.9" cy="29.8" r="1.6" fill="#2d7ec4" fill-opacity="0.72"/>
<circle cx="138.9" cy="27.1" r="1.6" fill="#2d7ec4" fill-opacity="0.72"/>
<circle cx="132.2" cy="33.9" r="1.6" fill="#2d7ec4" fill-opacity="0.72"/>
<circle cx="125.4" cy="40.7" r="1.6" fill="#2d7ec4" fill-opacity="0.72"/>
<circle cx="127.4" cy="47.4" r="1.6" fill="#2d7ec4" fill-opacity="0.72"/>
<circle cx="123.4" cy="52.9" r="1.6" fill="#2d7ec4" fill-opacity="0.72"/>
<circle cx="120.6" cy="58.3" r="1.6" fill="#2d7ec4" fill-opacity="0.72"/>
<circle cx="115.9" cy="63.7" r="1.6" fill="#2d7ec4" fill-opacity="0.72"/>
<circle cx="118.6" cy="73.2" r="1.6" fill="#2d7ec4" fill-opacity="0.72"/>
<circle cx="132.2" cy="70.5" r="1.6" fill="#2d7ec4" fill-opacity="0.72"/>
<circle cx="132.2" cy="63.7" r="1.6" fill="#2d7ec4" fill-opacity="0.72"/>
<circle cx="130.8" cy="61.0" r="1.6" fill="#2d7ec4" fill-opacity="0.72"/>
<circle cx="138.3" cy="58.3" r="1.6" fill="#2d7ec4" fill-opacity="0.72"/>
<circle cx="136.2" cy="47.4" r="1.6" fill="#2d7ec4" fill-opacity="0.72"/>
<circle cx="138.3" cy="40.7" r="1.6" fill="#2d7ec4" fill-opacity="0.72"/>
<circle cx="138.9" cy="33.9" r="1.6" fill="#2d7ec4" fill-opacity="0.72"/>
<circle cx="16.3" cy="25.8" r="1.6" fill="#2d7ec4" fill-opacity="0.72"/>
<circle cx="10.2" cy="40.7" r="1.6" fill="#2d7ec4" fill-opacity="0.72"/>
<circle cx="33.9" cy="47.4" r="1.6" fill="#2d7ec4" fill-opacity="0.72"/>
<circle cx="35.2" cy="54.2" r="1.6" fill="#2d7ec4" fill-opacity="0.72"/>
<circle cx="38.0" cy="56.9" r="1.6" fill="#2d7ec4" fill-opacity="0.72"/>
<circle cx="38.0" cy="67.8" r="1.6" fill="#2d7ec4" fill-opacity="0.72"/>
<circle cx="40.7" cy="74.6" r="1.6" fill="#2d7ec4" fill-opacity="0.72"/>
<circle cx="47.4" cy="84.0" r="1.6" fill="#2d7ec4" fill-opacity="0.72"/>
<circle cx="56.3" cy="92.2" r="1.6" fill="#2d7ec4" fill-opacity="0.72"/>
<circle cx="62.4" cy="97.6" r="1.6" fill="#2d7ec4" fill-opacity="0.72"/>
<circle cx="67.8" cy="88.1" r="1.6" fill="#2d7ec4" fill-opacity="0.72"/>
<circle cx="67.1" cy="81.3" r="1.6" fill="#2d7ec4" fill-opacity="0.72"/>
<circle cx="71.2" cy="74.6" r="1.6" fill="#2d7ec4" fill-opacity="0.72"/>
<circle cx="74.6" cy="65.1" r="1.6" fill="#2d7ec4" fill-opacity="0.72"/>
<circle cx="84.7" cy="54.2" r="1.6" fill="#2d7ec4" fill-opacity="0.72"/>
<circle cx="82.0" cy="47.4" r="1.6" fill="#2d7ec4" fill-opacity="0.72"/>
<circle cx="77.9" cy="40.7" r="1.6" fill="#2d7ec4" fill-opacity="0.72"/>
<circle cx="67.8" cy="33.9" r="1.6" fill="#2d7ec4" fill-opacity="0.72"/>
<circle cx="57.6" cy="27.1" r="1.6" fill="#2d7ec4" fill-opacity="0.72"/>
<circle cx="40.7" cy="24.4" r="1.6" fill="#2d7ec4" fill-opacity="0.72"/>
<circle cx="30.5" cy="27.1" r="1.6" fill="#2d7ec4" fill-opacity="0.72"/>
<circle cx="6.8" cy="33.9" r="1.6" fill="#2d7ec4" fill-opacity="0.72"/>
<circle cx="73.2" cy="105.7" r="1.6" fill="#2d7ec4" fill-opacity="0.72"/>
<circle cx="80.0" cy="111.2" r="1.6" fill="#2d7ec4" fill-opacity="0.72"/>
<circle cx="86.8" cy="115.2" r="1.6" fill="#2d7ec4" fill-opacity="0.72"/>
<circle cx="88.1" cy="122.0" r="1.6" fill="#2d7ec4" fill-opacity="0.72"/>
<circle cx="98.3" cy="128.8" r="1.6" fill="#2d7ec4" fill-opacity="0.72"/>
<circle cx="96.9" cy="138.3" r="1.6" fill="#2d7ec4" fill-opacity="0.72"/>
<circle cx="94.9" cy="149.1" r="1.6" fill="#2d7ec4" fill-opacity="0.72"/>
<circle cx="88.1" cy="162.7" r="1.6" fill="#2d7ec4" fill-opacity="0.72"/>
<circle cx="83.4" cy="173.5" r="1.6" fill="#2d7ec4" fill-opacity="0.72"/>
<circle cx="77.9" cy="183.0" r="1.6" fill="#2d7ec4" fill-opacity="0.72"/>
<circle cx="75.9" cy="196.6" r="1.6" fill="#2d7ec4" fill-opacity="0.72"/>
<circle cx="72.5" cy="189.8" r="1.6" fill="#2d7ec4" fill-opacity="0.72"/>
<circle cx="73.2" cy="178.9" r="1.6" fill="#2d7ec4" fill-opacity="0.72"/>
<circle cx="74.6" cy="162.7" r="1.6" fill="#2d7ec4" fill-opacity="0.72"/>
<circle cx="74.6" cy="146.4" r="1.6" fill="#2d7ec4" fill-opacity="0.72"/>
<circle cx="67.8" cy="128.8" r="1.6" fill="#2d7ec4" fill-opacity="0.72"/>
<circle cx="69.1" cy="122.0" r="1.6" fill="#2d7ec4" fill-opacity="0.72"/>
<circle cx="210.1" cy="142.3" r="1.6" fill="#2d7ec4" fill-opacity="0.72"/>
<circle cx="216.9" cy="146.4" r="1.6" fill="#2d7ec4" fill-opacity="0.72"/>
<circle cx="225.7" cy="155.9" r="1.6" fill="#2d7ec4" fill-opacity="0.72"/>
<circle cx="225.7" cy="165.4" r="1.6" fill="#2d7ec4" fill-opacity="0.72"/>
<circle cx="221.6" cy="173.5" r="1.6" fill="#2d7ec4" fill-opacity="0.72"/>
<circle cx="219.6" cy="176.2" r="1.6" fill="#2d7ec4" fill-opacity="0.72"/>
<circle cx="215.5" cy="169.4" r="1.6" fill="#2d7ec4" fill-opacity="0.72"/>
<circle cx="199.9" cy="165.4" r="1.6" fill="#2d7ec4" fill-opacity="0.72"/>
<circle cx="198.6" cy="151.8" r="1.6" fill="#2d7ec4" fill-opacity="0.72"/>
<circle cx="213.5" cy="138.3" r="1.6" fill="#2d7ec4" fill-opacity="0.72"/>
<circle cx="122.0" cy="216.9" r="1.6" fill="#2d7ec4" fill-opacity="0.72"/>
<circle cx="142.3" cy="221.0" r="1.6" fill="#2d7ec4" fill-opacity="0.72"/>
<circle cx="162.7" cy="223.7" r="1.6" fill="#2d7ec4" fill-opacity="0.72"/>
<circle cx="183.0" cy="221.0" r="1.6" fill="#2d7ec4" fill-opacity="0.72"/>
<circle cx="203.3" cy="223.7" r="1.6" fill="#2d7ec4" fill-opacity="0.72"/>
<circle cx="223.7" cy="221.0" r="1.6" fill="#2d7ec4" fill-opacity="0.72"/>
<circle cx="237.2" cy="216.9" r="1.6" fill="#2d7ec4" fill-opacity="0.72"/>
<circle cx="189.8" cy="210.1" r="1.6" fill="#2d7ec4" fill-opacity="0.72"/>
<circle cx="149.1" cy="212.8" r="1.6" fill="#2d7ec4" fill-opacity="0.72"/>
<circle cx="108.4" cy="210.1" r="1.6" fill="#2d7ec4" fill-opacity="0.72"/>
<circle cx="175.2" cy="98.4" r="3.8" fill="none" stroke="#ff6b35" stroke-width="1.8"><animate attributeName="r" from="3.8" to="8" dur="1.8s" repeatCount="indefinite"/><animate attributeName="stroke-opacity" from="0.9" to="0" dur="1.8s" repeatCount="indefinite"/></circle>
<circle cx="175.2" cy="98.4" r="3.8" fill="none" stroke="#ff9944" stroke-width="1"><animate attributeName="r" from="3.8" to="8" dur="1.8s" begin="0.90s" repeatCount="indefinite"/><animate attributeName="stroke-opacity" from="0.6" to="0" dur="1.8s" begin="0.90s" repeatCount="indefinite"/></circle>
<circle cx="175.2" cy="98.4" r="3.8" fill="#ff6b35" filter="url(#hg)"/>
<text x="180.7" y="94.4" font-family="monospace" font-size="7.5" font-weight="700" fill="#ffaa77">HYD</text>
<line x1="244.0" y1="230.4" x2="488.0" y2="230.4" stroke="#1f6feb" stroke-width="0.4" stroke-opacity="0.28"/>
<line x1="244.0" y1="210.1" x2="488.0" y2="210.1" stroke="#1f6feb" stroke-width="0.4" stroke-opacity="0.28"/>
<line x1="244.0" y1="189.8" x2="488.0" y2="189.8" stroke="#1f6feb" stroke-width="0.4" stroke-opacity="0.28"/>
<line x1="244.0" y1="169.4" x2="488.0" y2="169.4" stroke="#1f6feb" stroke-width="0.4" stroke-opacity="0.28"/>
<line x1="244.0" y1="149.1" x2="488.0" y2="149.1" stroke="#1f6feb" stroke-width="0.4" stroke-opacity="0.28"/>
<line x1="244.0" y1="128.8" x2="488.0" y2="128.8" stroke="#1f6feb" stroke-width="0.4" stroke-opacity="0.28"/>
<line x1="244.0" y1="108.4" x2="488.0" y2="108.4" stroke="#1f6feb" stroke-width="0.4" stroke-opacity="0.28"/>
<line x1="244.0" y1="88.1" x2="488.0" y2="88.1" stroke="#1f6feb" stroke-width="0.4" stroke-opacity="0.28"/>
<line x1="244.0" y1="67.8" x2="488.0" y2="67.8" stroke="#1f6feb" stroke-width="0.4" stroke-opacity="0.28"/>
<line x1="244.0" y1="47.4" x2="488.0" y2="47.4" stroke="#1f6feb" stroke-width="0.4" stroke-opacity="0.28"/>
<line x1="244.0" y1="27.1" x2="488.0" y2="27.1" stroke="#1f6feb" stroke-width="0.4" stroke-opacity="0.28"/>
<line x1="244.0" y1="6.8" x2="488.0" y2="6.8" stroke="#1f6feb" stroke-width="0.4" stroke-opacity="0.28"/>
<line x1="244.0" y1="0" x2="244.0" y2="244.0" stroke="#1f6feb" stroke-width="0.4" stroke-opacity="0.28"/>
<line x1="254.2" y1="0" x2="254.2" y2="244.0" stroke="#1f6feb" stroke-width="0.4" stroke-opacity="0.28"/>
<line x1="264.3" y1="0" x2="264.3" y2="244.0" stroke="#1f6feb" stroke-width="0.4" stroke-opacity="0.28"/>
<line x1="274.5" y1="0" x2="274.5" y2="244.0" stroke="#1f6feb" stroke-width="0.4" stroke-opacity="0.28"/>
<line x1="284.7" y1="0" x2="284.7" y2="244.0" stroke="#1f6feb" stroke-width="0.4" stroke-opacity="0.28"/>
<line x1="294.8" y1="0" x2="294.8" y2="244.0" stroke="#1f6feb" stroke-width="0.4" stroke-opacity="0.28"/>
<line x1="305.0" y1="0" x2="305.0" y2="244.0" stroke="#1f6feb" stroke-width="0.4" stroke-opacity="0.28"/>
<line x1="315.2" y1="0" x2="315.2" y2="244.0" stroke="#1f6feb" stroke-width="0.4" stroke-opacity="0.28"/>
<line x1="325.3" y1="0" x2="325.3" y2="244.0" stroke="#1f6feb" stroke-width="0.4" stroke-opacity="0.28"/>
<line x1="335.5" y1="0" x2="335.5" y2="244.0" stroke="#1f6feb" stroke-width="0.4" stroke-opacity="0.28"/>
<line x1="345.7" y1="0" x2="345.7" y2="244.0" stroke="#1f6feb" stroke-width="0.4" stroke-opacity="0.28"/>
<line x1="355.8" y1="0" x2="355.8" y2="244.0" stroke="#1f6feb" stroke-width="0.4" stroke-opacity="0.28"/>
<line x1="366.0" y1="0" x2="366.0" y2="244.0" stroke="#58a6ff" stroke-width="1" stroke-opacity="0.65"/>
<line x1="376.2" y1="0" x2="376.2" y2="244.0" stroke="#1f6feb" stroke-width="0.4" stroke-opacity="0.28"/>
<line x1="386.3" y1="0" x2="386.3" y2="244.0" stroke="#1f6feb" stroke-width="0.4" stroke-opacity="0.28"/>
<line x1="396.5" y1="0" x2="396.5" y2="244.0" stroke="#1f6feb" stroke-width="0.4" stroke-opacity="0.28"/>
<line x1="406.7" y1="0" x2="406.7" y2="244.0" stroke="#1f6feb" stroke-width="0.4" stroke-opacity="0.28"/>
<line x1="416.8" y1="0" x2="416.8" y2="244.0" stroke="#1f6feb" stroke-width="0.4" stroke-opacity="0.28"/>
<line x1="427.0" y1="0" x2="427.0" y2="244.0" stroke="#1f6feb" stroke-width="0.4" stroke-opacity="0.28"/>
<line x1="437.2" y1="0" x2="437.2" y2="244.0" stroke="#1f6feb" stroke-width="0.4" stroke-opacity="0.28"/>
<line x1="447.3" y1="0" x2="447.3" y2="244.0" stroke="#1f6feb" stroke-width="0.4" stroke-opacity="0.28"/>
<line x1="457.5" y1="0" x2="457.5" y2="244.0" stroke="#1f6feb" stroke-width="0.4" stroke-opacity="0.28"/>
<line x1="467.7" y1="0" x2="467.7" y2="244.0" stroke="#1f6feb" stroke-width="0.4" stroke-opacity="0.28"/>
<line x1="477.8" y1="0" x2="477.8" y2="244.0" stroke="#1f6feb" stroke-width="0.4" stroke-opacity="0.28"/>
<line x1="488.0" y1="0" x2="488.0" y2="244.0" stroke="#1f6feb" stroke-width="0.4" stroke-opacity="0.28"/>
<circle cx="362.6" cy="71.8" r="1.6" fill="#2d7ec4" fill-opacity="0.72"/>
<circle cx="372.1" cy="75.9" r="1.6" fill="#2d7ec4" fill-opacity="0.72"/>
<circle cx="387.7" cy="81.3" r="1.6" fill="#2d7ec4" fill-opacity="0.72"/>
<circle cx="391.1" cy="92.2" r="1.6" fill="#2d7ec4" fill-opacity="0.72"/>
<circle cx="394.5" cy="101.7" r="1.6" fill="#2d7ec4" fill-opacity="0.72"/>
<circle cx="393.8" cy="115.2" r="1.6" fill="#2d7ec4" fill-opacity="0.72"/>
<circle cx="393.1" cy="128.8" r="1.6" fill="#2d7ec4" fill-opacity="0.72"/>
<circle cx="391.8" cy="141.0" r="1.6" fill="#2d7ec4" fill-opacity="0.72"/>
<circle cx="389.7" cy="149.1" r="1.6" fill="#2d7ec4" fill-opacity="0.72"/>
<circle cx="386.3" cy="162.7" r="1.6" fill="#2d7ec4" fill-opacity="0.72"/>
<circle cx="379.6" cy="169.4" r="1.6" fill="#2d7ec4" fill-opacity="0.72"/>
<circle cx="377.5" cy="166.7" r="1.6" fill="#2d7ec4" fill-opacity="0.72"/>
<circle cx="376.2" cy="155.9" r="1.6" fill="#2d7ec4" fill-opacity="0.72"/>
<circle cx="374.1" cy="146.4" r="1.6" fill="#2d7ec4" fill-opacity="0.72"/>
<circle cx="372.8" cy="128.8" r="1.6" fill="#2d7ec4" fill-opacity="0.72"/>
<circle cx="368.0" cy="115.2" r="1.6" fill="#2d7ec4" fill-opacity="0.72"/>
<circle cx="355.8" cy="105.7" r="1.6" fill="#2d7ec4" fill-opacity="0.72"/>
<circle cx="355.2" cy="97.6" r="1.6" fill="#2d7ec4" fill-opacity="0.72"/>
<circle cx="355.8" cy="88.1" r="1.6" fill="#2d7ec4" fill-opacity="0.72"/>
<circle cx="359.2" cy="78.6" r="1.6" fill="#2d7ec4" fill-opacity="0.72"/>
<circle cx="362.6" cy="74.6" r="1.6" fill="#2d7ec4" fill-opacity="0.72"/>
<circle cx="390.4" cy="71.8" r="1.6" fill="#2d7ec4" fill-opacity="0.72"/>
<circle cx="384.3" cy="67.8" r="1.6" fill="#2d7ec4" fill-opacity="0.72"/>
<circle cx="399.9" cy="89.5" r="1.6" fill="#2d7ec4" fill-opacity="0.72"/>
<circle cx="406.7" cy="92.2" r="1.6" fill="#2d7ec4" fill-opacity="0.72"/>
<circle cx="404.6" cy="90.8" r="1.6" fill="#2d7ec4" fill-opacity="0.72"/>
<circle cx="395.1" cy="105.7" r="1.6" fill="#2d7ec4" fill-opacity="0.72"/>
<circle cx="399.9" cy="103.0" r="1.6" fill="#2d7ec4" fill-opacity="0.72"/>
<circle cx="406.0" cy="92.2" r="1.6" fill="#2d7ec4" fill-opacity="0.72"/>
<circle cx="411.4" cy="89.5" r="1.6" fill="#2d7ec4" fill-opacity="0.72"/>
<circle cx="412.1" cy="88.1" r="1.6" fill="#2d7ec4" fill-opacity="0.72"/>
<circle cx="413.4" cy="92.2" r="1.6" fill="#2d7ec4" fill-opacity="0.72"/>
<circle cx="415.5" cy="94.9" r="1.6" fill="#2d7ec4" fill-opacity="0.72"/>
<circle cx="415.5" cy="101.7" r="1.6" fill="#2d7ec4" fill-opacity="0.72"/>
<circle cx="418.2" cy="111.2" r="1.6" fill="#2d7ec4" fill-opacity="0.72"/>
<circle cx="420.2" cy="111.2" r="1.6" fill="#2d7ec4" fill-opacity="0.72"/>
<circle cx="420.2" cy="105.7" r="1.6" fill="#2d7ec4" fill-opacity="0.72"/>
<circle cx="425.0" cy="94.9" r="1.6" fill="#2d7ec4" fill-opacity="0.72"/>
<circle cx="427.0" cy="90.8" r="1.6" fill="#2d7ec4" fill-opacity="0.72"/>
<circle cx="428.4" cy="92.2" r="1.6" fill="#2d7ec4" fill-opacity="0.72"/>
<circle cx="429.0" cy="94.9" r="1.6" fill="#2d7ec4" fill-opacity="0.72"/>
<circle cx="415.5" cy="84.0" r="1.6" fill="#2d7ec4" fill-opacity="0.72"/>
<circle cx="420.2" cy="86.8" r="1.6" fill="#2d7ec4" fill-opacity="0.72"/>
<circle cx="424.3" cy="89.5" r="1.6" fill="#2d7ec4" fill-opacity="0.72"/>
<circle cx="425.6" cy="92.2" r="1.6" fill="#2d7ec4" fill-opacity="0.72"/>
<circle cx="426.3" cy="89.5" r="1.6" fill="#2d7ec4" fill-opacity="0.72"/>
<circle cx="433.8" cy="115.2" r="1.6" fill="#2d7ec4" fill-opacity="0.72"/>
<circle cx="433.1" cy="108.4" r="1.6" fill="#2d7ec4" fill-opacity="0.72"/>
<circle cx="435.1" cy="100.3" r="1.6" fill="#2d7ec4" fill-opacity="0.72"/>
<circle cx="437.8" cy="94.9" r="1.6" fill="#2d7ec4" fill-opacity="0.72"/>
<circle cx="443.3" cy="92.2" r="1.6" fill="#2d7ec4" fill-opacity="0.72"/>
<circle cx="447.3" cy="88.1" r="1.6" fill="#2d7ec4" fill-opacity="0.72"/>
<circle cx="448.7" cy="81.3" r="1.6" fill="#2d7ec4" fill-opacity="0.72"/>
<circle cx="454.1" cy="74.6" r="1.6" fill="#2d7ec4" fill-opacity="0.72"/>
<circle cx="450.0" cy="67.8" r="1.6" fill="#2d7ec4" fill-opacity="0.72"/>
<circle cx="454.1" cy="65.1" r="1.6" fill="#2d7ec4" fill-opacity="0.72"/>
<circle cx="460.9" cy="56.9" r="1.6" fill="#2d7ec4" fill-opacity="0.72"/>
<circle cx="460.9" cy="47.4" r="1.6" fill="#2d7ec4" fill-opacity="0.72"/>
<circle cx="467.7" cy="40.7" r="1.6" fill="#2d7ec4" fill-opacity="0.72"/>
<circle cx="476.5" cy="40.7" r="1.6" fill="#2d7ec4" fill-opacity="0.72"/>
<circle cx="488.0" cy="33.9" r="1.6" fill="#2d7ec4" fill-opacity="0.72"/>
<circle cx="486.6" cy="27.1" r="1.6" fill="#2d7ec4" fill-opacity="0.72"/>
<circle cx="464.3" cy="24.4" r="1.6" fill="#2d7ec4" fill-opacity="0.72"/>
<circle cx="447.3" cy="23.0" r="1.6" fill="#2d7ec4" fill-opacity="0.72"/>
<circle cx="430.4" cy="20.3" r="1.6" fill="#2d7ec4" fill-opacity="0.72"/>
<circle cx="416.8" cy="17.6" r="1.6" fill="#2d7ec4" fill-opacity="0.72"/>
<circle cx="403.3" cy="23.0" r="1.6" fill="#2d7ec4" fill-opacity="0.72"/>
<circle cx="386.3" cy="33.9" r="1.6" fill="#2d7ec4" fill-opacity="0.72"/>
<circle cx="403.3" cy="27.1" r="1.6" fill="#2d7ec4" fill-opacity="0.72"/>
<circle cx="416.8" cy="27.1" r="1.6" fill="#2d7ec4" fill-opacity="0.72"/>
<circle cx="430.4" cy="27.1" r="1.6" fill="#2d7ec4" fill-opacity="0.72"/>
<circle cx="443.9" cy="27.1" r="1.6" fill="#2d7ec4" fill-opacity="0.72"/>
<circle cx="460.9" cy="29.8" r="1.6" fill="#2d7ec4" fill-opacity="0.72"/>
<circle cx="382.9" cy="27.1" r="1.6" fill="#2d7ec4" fill-opacity="0.72"/>
<circle cx="376.2" cy="33.9" r="1.6" fill="#2d7ec4" fill-opacity="0.72"/>
<circle cx="369.4" cy="40.7" r="1.6" fill="#2d7ec4" fill-opacity="0.72"/>
<circle cx="371.4" cy="47.4" r="1.6" fill="#2d7ec4" fill-opacity="0.72"/>
<circle cx="367.4" cy="52.9" r="1.6" fill="#2d7ec4" fill-opacity="0.72"/>
<circle cx="364.6" cy="58.3" r="1.6" fill="#2d7ec4" fill-opacity="0.72"/>
<circle cx="359.9" cy="63.7" r="1.6" fill="#2d7ec4" fill-opacity="0.72"/>
<circle cx="362.6" cy="73.2" r="1.6" fill="#2d7ec4" fill-opacity="0.72"/>
<circle cx="376.2" cy="70.5" r="1.6" fill="#2d7ec4" fill-opacity="0.72"/>
<circle cx="376.2" cy="63.7" r="1.6" fill="#2d7ec4" fill-opacity="0.72"/>
<circle cx="374.8" cy="61.0" r="1.6" fill="#2d7ec4" fill-opacity="0.72"/>
<circle cx="382.3" cy="58.3" r="1.6" fill="#2d7ec4" fill-opacity="0.72"/>
<circle cx="380.2" cy="47.4" r="1.6" fill="#2d7ec4" fill-opacity="0.72"/>
<circle cx="382.3" cy="40.7" r="1.6" fill="#2d7ec4" fill-opacity="0.72"/>
<circle cx="382.9" cy="33.9" r="1.6" fill="#2d7ec4" fill-opacity="0.72"/>
<circle cx="260.3" cy="25.8" r="1.6" fill="#2d7ec4" fill-opacity="0.72"/>
<circle cx="254.2" cy="40.7" r="1.6" fill="#2d7ec4" fill-opacity="0.72"/>
<circle cx="277.9" cy="47.4" r="1.6" fill="#2d7ec4" fill-opacity="0.72"/>
<circle cx="279.2" cy="54.2" r="1.6" fill="#2d7ec4" fill-opacity="0.72"/>
<circle cx="282.0" cy="56.9" r="1.6" fill="#2d7ec4" fill-opacity="0.72"/>
<circle cx="282.0" cy="67.8" r="1.6" fill="#2d7ec4" fill-opacity="0.72"/>
<circle cx="284.7" cy="74.6" r="1.6" fill="#2d7ec4" fill-opacity="0.72"/>
<circle cx="291.4" cy="84.0" r="1.6" fill="#2d7ec4" fill-opacity="0.72"/>
<circle cx="300.3" cy="92.2" r="1.6" fill="#2d7ec4" fill-opacity="0.72"/>
<circle cx="306.4" cy="97.6" r="1.6" fill="#2d7ec4" fill-opacity="0.72"/>
<circle cx="311.8" cy="88.1" r="1.6" fill="#2d7ec4" fill-opacity="0.72"/>
<circle cx="311.1" cy="81.3" r="1.6" fill="#2d7ec4" fill-opacity="0.72"/>
<circle cx="315.2" cy="74.6" r="1.6" fill="#2d7ec4" fill-opacity="0.72"/>
<circle cx="318.6" cy="65.1" r="1.6" fill="#2d7ec4" fill-opacity="0.72"/>
<circle cx="328.7" cy="54.2" r="1.6" fill="#2d7ec4" fill-opacity="0.72"/>
<circle cx="326.0" cy="47.4" r="1.6" fill="#2d7ec4" fill-opacity="0.72"/>
<circle cx="321.9" cy="40.7" r="1.6" fill="#2d7ec4" fill-opacity="0.72"/>
<circle cx="311.8" cy="33.9" r="1.6" fill="#2d7ec4" fill-opacity="0.72"/>
<circle cx="301.6" cy="27.1" r="1.6" fill="#2d7ec4" fill-opacity="0.72"/>
<circle cx="284.7" cy="24.4" r="1.6" fill="#2d7ec4" fill-opacity="0.72"/>
<circle cx="274.5" cy="27.1" r="1.6" fill="#2d7ec4" fill-opacity="0.72"/>
<circle cx="250.8" cy="33.9" r="1.6" fill="#2d7ec4" fill-opacity="0.72"/>
<circle cx="317.2" cy="105.7" r="1.6" fill="#2d7ec4" fill-opacity="0.72"/>
<circle cx="324.0" cy="111.2" r="1.6" fill="#2d7ec4" fill-opacity="0.72"/>
<circle cx="330.8" cy="115.2" r="1.6" fill="#2d7ec4" fill-opacity="0.72"/>
<circle cx="332.1" cy="122.0" r="1.6" fill="#2d7ec4" fill-opacity="0.72"/>
<circle cx="342.3" cy="128.8" r="1.6" fill="#2d7ec4" fill-opacity="0.72"/>
<circle cx="340.9" cy="138.3" r="1.6" fill="#2d7ec4" fill-opacity="0.72"/>
<circle cx="338.9" cy="149.1" r="1.6" fill="#2d7ec4" fill-opacity="0.72"/>
<circle cx="332.1" cy="162.7" r="1.6" fill="#2d7ec4" fill-opacity="0.72"/>
<circle cx="327.4" cy="173.5" r="1.6" fill="#2d7ec4" fill-opacity="0.72"/>
<circle cx="321.9" cy="183.0" r="1.6" fill="#2d7ec4" fill-opacity="0.72"/>
<circle cx="319.9" cy="196.6" r="1.6" fill="#2d7ec4" fill-opacity="0.72"/>
<circle cx="316.5" cy="189.8" r="1.6" fill="#2d7ec4" fill-opacity="0.72"/>
<circle cx="317.2" cy="178.9" r="1.6" fill="#2d7ec4" fill-opacity="0.72"/>
<circle cx="318.6" cy="162.7" r="1.6" fill="#2d7ec4" fill-opacity="0.72"/>
<circle cx="318.6" cy="146.4" r="1.6" fill="#2d7ec4" fill-opacity="0.72"/>
<circle cx="311.8" cy="128.8" r="1.6" fill="#2d7ec4" fill-opacity="0.72"/>
<circle cx="313.1" cy="122.0" r="1.6" fill="#2d7ec4" fill-opacity="0.72"/>
<circle cx="454.1" cy="142.3" r="1.6" fill="#2d7ec4" fill-opacity="0.72"/>
<circle cx="460.9" cy="146.4" r="1.6" fill="#2d7ec4" fill-opacity="0.72"/>
<circle cx="469.7" cy="155.9" r="1.6" fill="#2d7ec4" fill-opacity="0.72"/>
<circle cx="469.7" cy="165.4" r="1.6" fill="#2d7ec4" fill-opacity="0.72"/>
<circle cx="465.6" cy="173.5" r="1.6" fill="#2d7ec4" fill-opacity="0.72"/>
<circle cx="463.6" cy="176.2" r="1.6" fill="#2d7ec4" fill-opacity="0.72"/>
<circle cx="459.5" cy="169.4" r="1.6" fill="#2d7ec4" fill-opacity="0.72"/>
<circle cx="443.9" cy="165.4" r="1.6" fill="#2d7ec4" fill-opacity="0.72"/>
<circle cx="442.6" cy="151.8" r="1.6" fill="#2d7ec4" fill-opacity="0.72"/>
<circle cx="457.5" cy="138.3" r="1.6" fill="#2d7ec4" fill-opacity="0.72"/>
<circle cx="366.0" cy="216.9" r="1.6" fill="#2d7ec4" fill-opacity="0.72"/>
<circle cx="386.3" cy="221.0" r="1.6" fill="#2d7ec4" fill-opacity="0.72"/>
<circle cx="406.7" cy="223.7" r="1.6" fill="#2d7ec4" fill-opacity="0.72"/>
<circle cx="427.0" cy="221.0" r="1.6" fill="#2d7ec4" fill-opacity="0.72"/>
<circle cx="447.3" cy="223.7" r="1.6" fill="#2d7ec4" fill-opacity="0.72"/>
<circle cx="467.7" cy="221.0" r="1.6" fill="#2d7ec4" fill-opacity="0.72"/>
<circle cx="481.2" cy="216.9" r="1.6" fill="#2d7ec4" fill-opacity="0.72"/>
<circle cx="433.8" cy="210.1" r="1.6" fill="#2d7ec4" fill-opacity="0.72"/>
<circle cx="393.1" cy="212.8" r="1.6" fill="#2d7ec4" fill-opacity="0.72"/>
<circle cx="352.4" cy="210.1" r="1.6" fill="#2d7ec4" fill-opacity="0.72"/>
<circle cx="419.2" cy="98.4" r="3.8" fill="none" stroke="#ff6b35" stroke-width="1.8"><animate attributeName="r" from="3.8" to="8" dur="1.8s" repeatCount="indefinite"/><animate attributeName="stroke-opacity" from="0.9" to="0" dur="1.8s" repeatCount="indefinite"/></circle>
<circle cx="419.2" cy="98.4" r="3.8" fill="none" stroke="#ff9944" stroke-width="1"><animate attributeName="r" from="3.8" to="8" dur="1.8s" begin="0.90s" repeatCount="indefinite"/><animate attributeName="stroke-opacity" from="0.6" to="0" dur="1.8s" begin="0.90s" repeatCount="indefinite"/></circle>
<circle cx="419.2" cy="98.4" r="3.8" fill="#ff6b35" filter="url(#hg)"/>
<text x="424.7" y="94.4" font-family="monospace" font-size="7.5" font-weight="700" fill="#ffaa77">HYD</text>
</g></g>
<circle cx="150" cy="146" r="132" fill="none" stroke="#1f6feb" stroke-width="10" stroke-opacity="0.12"/>
<circle cx="150" cy="146" r="124" fill="none" stroke="#58a6ff" stroke-width="1.5" stroke-opacity="0.35"/>
<circle cx="150" cy="146" r="122.5" fill="none" stroke="#ffffff" stroke-width="0.5" stroke-opacity="0.12"/>
<circle cx="150" cy="146" r="122" fill="url(#shn)"/>
<text x="150" y="284" font-family="monospace" font-size="11.5" font-weight="600" fill="#58a6ff" text-anchor="middle">215 contributions</text>
<text x="150" y="299" font-family="monospace" font-size="9" fill="#8b949e" text-anchor="middle">streak 2  ·  Hyderabad, IN</text>
</svg>